# xmcd
#
# Track frame offsets:
#	150
#	14598
#	23961
#	36374
#	46706
#	63797
#	76928
#	92052
#	104856
#	119661
#	140863
#	157966
#	174213
#
# Disc length: 2523
#
# Revision: 2
# Processed by: cddbd v1.5.1PL0 Copyright (c) Steve Scherf et al.
# Submitted via: ExactAudioCopy v0.95a3
# Normalized: r0:TDELIM( - ),TSWAP
#
DISCID=ab09d90d
DTITLE=Various Artist - Rockin' Country
DYEAR=2002
DGENRE=Country
TTITLE0=David Allan Coe - Willie, Waylon and Me
TTITLE1=The Byrds - Ballad of Easy Rider
TTITLE2=Carl Perkins - Restless
TTITLE3=Johnny Paycheck and George Jones - Mabelline
TTITLE4=Dr. Hook and The Medicine Show - Sylvia's Mother
TTITLE5=Johnny Cash - Bad News
TTITLE6=Poco - You Better Think Twice
TTITLE7=Willie Nelson - Midnight Rider
TTITLE8=Micheal Murphey - Wildflower
TTITLE9=Dave Alvin - Long White Cadillac
TTITLE10=Rodney Crowell - Lovin' All Night
TTITLE11=Charlie Robison - Barlight
TTITLE12=The Doobie Brothers - Rockin' Down the Highway (Live)
EXTD=Sony Music Custom Marketing Group
EXTT0=
EXTT1=
EXTT2=
EXTT3=
EXTT4=
EXTT5=
EXTT6=
EXTT7=
EXTT8=
EXTT9=
EXTT10=
EXTT11=
EXTT12=
PLAYORDER=
